<?xml version="1.0" standalone="no"?>
<!DOCTYPE svg PUBLIC "-//W3C//DTD SVG 20010904//EN"
 "http://www.w3.org/TR/2001/REC-SVG-20010904/DTD/svg10.dtd">
<svg version="1.0" xmlns="http://www.w3.org/2000/svg"
 width="897.000000pt" height="806.000000pt" viewBox="0 0 897.000000 806.000000"
 preserveAspectRatio="xMidYMid meet">

<g transform="translate(0.000000,806.000000) scale(0.100000,-0.100000)"
fill="#000000" stroke="none">
<path d="M5826 7985 c-74 -31 -181 -118 -252 -203 -73 -88 -235 -332 -369
-557 -59 -99 -129 -211 -155 -250 -25 -38 -59 -92 -75 -119 -62 -108 -274
-398 -443 -606 -143 -176 -420 -433 -522 -485 -19 -10 -53 -30 -75 -45 -50
-33 -141 -69 -265 -105 -118 -33 -362 -160 -343 -178 12 -13 151 -7 225 8 40
9 84 17 98 19 39 6 76 21 215 87 135 64 194 105 302 207 30 28 58 52 61 52 11
0 220 220 263 278 24 31 83 107 131 168 48 62 88 116 88 121 0 5 11 20 25 33
14 13 25 29 25 37 0 7 4 13 9 13 5 0 12 8 15 18 4 10 14 27 24 38 9 11 44 60
77 109 33 50 62 92 66 95 3 3 16 23 29 45 13 22 26 42 30 45 3 3 22 31 43 63
34 53 67 78 53 41 -3 -9 -9 -35 -11 -59 -6 -46 -38 -159 -78 -270 -14 -38 -29
-88 -33 -110 -4 -22 -17 -62 -29 -90 -12 -27 -26 -65 -30 -83 -4 -18 -13 -45
-21 -60 -8 -15 -14 -36 -14 -47 0 -27 -71 -167 -90 -176 -8 -4 -42 -19 -74
-34 -78 -33 -208 -121 -322 -215 -50 -41 -106 -87 -125 -102 -92 -72 -107 -85
-129 -105 -13 -13 -27 -23 -31 -23 -5 0 -38 -27 -75 -60 -37 -33 -82 -66 -100
-75 -18 -8 -34 -19 -36 -23 -6 -14 -103 -80 -218 -147 -63 -36 -122 -71 -130
-76 -8 -5 -44 -23 -80 -40 -222 -105 -477 -164 -585 -136 -28 8 -33 4 -90 -65
-33 -40 -97 -120 -142 -178 l-80 -105 22 -50 c12 -28 35 -59 51 -70 15 -11 38
-30 51 -42 13 -11 42 -36 65 -55 23 -18 49 -40 57 -49 9 -9 48 -41 86 -70 39
-29 79 -61 90 -71 11 -10 58 -48 105 -85 47 -37 92 -74 100 -82 8 -9 38 -32
65 -50 28 -19 59 -43 70 -53 21 -18 135 -105 218 -165 26 -19 47 -38 47 -42 0
-8 -119 -184 -129 -191 -5 -3 -15 -18 -24 -35 -8 -16 -24 -39 -34 -50 -10 -11
-45 -55 -78 -99 -33 -43 -65 -81 -72 -83 -7 -3 -13 -10 -13 -17 0 -6 -23 -35
-50 -64 -28 -29 -50 -55 -50 -58 0 -14 -159 -190 -256 -285 -227 -220 -508
-435 -717 -549 -43 -23 -76 -45 -73 -47 3 -3 34 3 68 15 35 11 76 23 92 27 16
3 52 25 80 49 57 47 117 93 151 116 113 77 348 281 460 399 33 36 76 81 95
100 19 20 48 54 64 76 16 22 34 45 41 50 6 6 27 30 46 55 33 43 48 60 129 154
70 80 150 185 150 195 0 6 3 11 8 11 4 0 16 17 27 37 11 20 25 41 31 47 21 22
193 285 249 381 32 55 65 109 75 120 16 19 71 113 120 205 13 25 27 47 30 50
7 5 13 15 60 107 14 26 27 50 30 53 17 17 72 121 219 410 19 36 38 73 43 83
47 93 95 190 138 282 85 178 127 266 155 325 47 96 105 233 105 246 0 7 5 14
11 16 5 2 11 10 13 18 1 8 17 46 34 84 18 38 34 79 36 92 4 22 101 249 159
374 17 36 31 68 31 72 1 3 4 10 9 14 4 4 7 15 7 25 0 18 20 69 47 122 8 15 11
27 7 27 -5 0 -3 5 4 12 7 7 12 19 12 27 0 17 83 231 106 274 8 15 13 27 11 27
-2 0 16 57 40 128 24 70 44 135 44 144 0 10 4 20 10 23 5 4 9 13 9 22 0 15
118 262 131 273 3 3 8 13 12 23 4 10 39 60 79 112 55 70 90 105 143 139 59 39
115 59 115 41 0 -6 -51 -85 -65 -101 -39 -44 -296 -550 -310 -610 -2 -6 -19
-46 -39 -89 -20 -43 -36 -84 -36 -91 0 -8 -4 -14 -10 -14 -5 0 -10 -5 -10 -11
0 -5 -11 -35 -25 -65 -14 -30 -25 -56 -25 -59 0 -2 -14 -34 -31 -72 -16 -37
-38 -88 -49 -113 -43 -106 -116 -273 -166 -381 -30 -64 -54 -121 -54 -127 0
-6 -30 -74 -66 -149 -71 -148 -69 -145 -139 -303 -63 -142 -295 -614 -306
-620 -4 -3 -39 -71 -77 -150 -38 -80 -102 -206 -142 -280 -40 -74 -97 -179
-126 -233 -29 -55 -59 -106 -68 -115 -8 -10 -14 -20 -13 -23 1 -3 -16 -34 -39
-70 -52 -81 -125 -202 -143 -237 -17 -32 -173 -265 -182 -272 -4 -3 -23 -33
-43 -67 -20 -34 -41 -65 -46 -68 -5 -3 -26 -36 -47 -73 -20 -37 -43 -73 -50
-81 -8 -7 -32 -41 -55 -75 -23 -33 -50 -70 -60 -80 -10 -11 -30 -38 -45 -60
-15 -23 -32 -45 -38 -51 -6 -5 -24 -28 -40 -50 -34 -45 -55 -72 -70 -89 -6 -6
-24 -29 -40 -51 -16 -22 -45 -56 -65 -76 -71 -74 -136 -146 -165 -183 -64 -81
-84 -103 -210 -230 -71 -72 -151 -155 -177 -185 l-48 -54 78 -38 c68 -33 95
-55 198 -162 107 -110 134 -146 242 -320 124 -200 179 -301 227 -417 46 -111
98 -220 105 -220 4 0 13 7 20 15 7 8 17 15 22 15 5 0 24 11 42 25 18 13 52 32
77 40 85 30 274 84 334 94 203 35 255 42 390 56 83 8 166 17 185 20 19 3 98
10 175 15 145 10 228 22 330 46 92 22 197 55 225 71 14 7 48 25 75 39 102 52
133 70 169 99 84 67 177 170 195 214 8 17 17 31 22 31 5 0 9 4 9 10 0 5 13 31
28 57 16 26 41 82 57 123 15 41 36 93 46 115 10 22 28 92 39 155 12 63 26 122
31 132 6 10 12 44 15 76 3 31 7 73 9 92 3 19 7 60 10 90 3 30 8 75 11 100 12
99 18 278 17 530 0 238 -3 352 -18 750 -3 63 -7 174 -10 245 -2 72 -9 186 -15
253 -5 68 -8 127 -6 130 2 4 0 45 -4 92 -15 150 -26 1122 -15 1365 3 66 7 192
9 279 5 193 16 329 26 336 4 3 11 48 14 100 6 82 17 171 41 323 4 21 15 64 26
95 11 31 25 72 30 91 16 50 57 111 75 111 18 0 53 -18 70 -35 57 -56 147 -267
184 -430 12 -50 28 -119 37 -154 9 -35 17 -76 19 -90 1 -14 9 -55 18 -91 31
-137 39 -176 42 -205 1 -17 7 -48 12 -70 6 -22 14 -62 17 -90 3 -27 10 -64 16
-82 5 -17 9 -38 8 -45 -2 -7 1 -38 6 -68 4 -30 9 -66 10 -80 11 -108 16 -152
24 -195 18 -89 35 -210 33 -219 -2 -5 2 -30 7 -55 6 -25 13 -71 16 -101 7 -90
35 -322 39 -329 2 -3 7 -44 10 -90 4 -46 9 -87 11 -91 2 -3 7 -42 10 -86 11
-145 24 -251 47 -399 6 -38 12 -89 13 -112 2 -23 10 -89 19 -145 8 -57 22
-168 31 -248 18 -163 113 -750 125 -765 4 -5 17 -71 30 -145 13 -74 29 -152
36 -174 8 -21 14 -57 14 -80 1 -43 53 -362 61 -370 2 -3 24 0 48 5 100 22 355
-32 501 -106 137 -70 421 -297 655 -525 284 -276 584 -533 702 -603 13 -8 -42
125 -142 343 -37 80 -87 197 -110 260 -24 63 -76 192 -115 285 -40 94 -91 224
-115 290 -24 66 -75 197 -115 290 -39 94 -96 233 -125 310 -29 77 -85 221
-123 320 -80 207 -260 723 -537 1540 -276 813 -410 1192 -568 1600 -134 347
-384 862 -519 1067 -60 91 -109 151 -192 233 -142 140 -188 166 -305 172 -75
3 -94 0 -145 -22z"/>
</g>
</svg>
